<svg width="32" height="32" fill="none" xmlns="http://www.w3.org/2000/svg"><path d="M11.641.143c-.193.038-1.054.324-1.933.629-.86.285-2.073.647-2.67.762-1.177.248-1.37.514-.826 1.162.264.324.246.362-.21.477-1.67.438-2.478 1.371-3.216 3.715-.598 1.925-1.09 3.01-1.915 4.25-.72 1.066-.65 1.428.333 1.714.809.248.809.248.282.839-.58.667-1.318 2.382-1.459 3.41-.07.477 0 1.373.158 2.192.159.762.317 1.715.387 2.115.07.457.193.705.316.648.123-.057.334-.153.492-.229.229-.095.316.038.404.667.176 1.239.95 3.125 1.617 3.983.351.438 1.195 1.18 1.88 1.657.703.477 1.476 1.105 1.74 1.372.403.4.526.438.755.229.14-.134.263-.362.263-.496 0-.362-.07-.362 2.355.477 1.16.419 2.688.933 3.356 1.162.685.21 1.44.572 1.704.781.58.458.58.458 1.16-.019.456-.362 2.073-.952 5.2-1.924.668-.21 1.37-.477 1.564-.59.299-.172.422-.115.703.304.176.267.386.495.457.495.052 0 .369-.247.685-.571.316-.305.949-.8 1.406-1.067 1.897-1.182 2.986-2.801 3.496-5.24.193-.991.334-1.315.51-1.239.14.057.351.172.491.229.176.076.282-.115.37-.724.052-.458.228-1.43.35-2.153.177-.915.194-1.601.089-2.23-.158-.915-.633-2.248-.844-2.439-.175-.133-.913-1.296-.913-1.43 0-.056.158-.094.334-.094.193 0 .544-.19.808-.439l.44-.419-.774-1.257c-.72-1.125-1.212-2.287-2.108-4.974-.387-1.162-1.318-2.153-2.39-2.572-.826-.324-.843-.324-.58-.762.352-.572.053-1.01-.72-1.01-.316 0-1.617-.343-2.917-.781-1.985-.648-2.565-.763-3.549-.705-.984.057-1.318.171-1.986.686-.808.61-.808.61-1.177.247-.825-.857-2.477-1.2-3.918-.838zm3.075.629c.386.21.773.552.879.762.245.476.562.476.843 0 .105-.21.527-.553.914-.762 1.054-.591 2.23-.496 4.92.38 1.282.42 2.564.763 2.828.763.263 0 .545.095.597.19.229.4-.527.42-1.81.02C19.373.772 19.233.734 18.442.867c-.562.095-.984.324-1.529.876-.404.4-.826.744-.913.744-.088 0-.352-.23-.598-.496-.51-.61-1.651-1.2-2.284-1.22-.246 0-1.195.23-2.108.496-3.725 1.124-4.235 1.239-4.48 1.143-.458-.19-.247-.495.333-.495.316 0 1.599-.343 2.846-.762C12.38.276 13.662.18 14.716.772zM8.004 3.82c.738.496 1.652 2.401 1.265 2.668-.193.133-.351.02-.597-.4-1.213-2.096-4.322-.972-4.094 1.486.035.42.228 1.03.422 1.334.333.514.369 1.01.052 1.01-.28 0-1.247-.99-1.51-1.563-.352-.724-.352-2.038-.018-2.743.878-1.81 3.092-2.706 4.48-1.792zm18.835.039c2.214 1.238 2.6 4.21.72 5.602-.526.38-.65.4-.772.171-.088-.19 0-.476.246-.857.51-.724.527-2.02.052-2.725-.439-.629-1.317-1.086-2.126-1.086-.527 0-.773.152-1.37.838-.966 1.124-1.265.915-.65-.457.58-1.277 1.37-1.906 2.39-1.906.421 0 1.071.19 1.51.42zM7.987 6.03l.456.495-.685.324c-.808.4-1.195.858-1.054 1.258.053.19-.088.38-.457.59-.545.305-.562.305-.878-.114-.194-.248-.317-.743-.317-1.181 0-1.639 1.88-2.516 2.935-1.372zm18.273-.115c.843.553 1.001 2.001.298 2.763-.228.248-.334.229-.86-.038-.475-.247-.563-.362-.405-.571.264-.343-.228-.934-1.019-1.2-.72-.268-.738-.42-.14-.935.58-.495 1.405-.514 2.126-.019zM16.086 7.27c4.34-.095 4.305-.095 5.377.362 1.985.839 3.233 2.535 4.006 5.43.351 1.354.404 1.944.404 5.05 0 3.392-.018 3.564-.457 4.574-.896 2.058-3.092 3.849-5.78 4.687-1.793.553-5.623.515-7.38-.095-2.934-.991-4.55-2.306-5.552-4.516l-.65-1.43v-2.99c0-3.469.263-5.146 1.177-7.204 1.265-2.915 3.426-4.192 6.606-3.963.826.076 1.828.114 2.25.095zM3.066 9.327C2.47 10.813 1.17 12.452.73 12.262c-.176-.077-.07-.305.334-.839.316-.4.86-1.334 1.177-2.058.562-1.257.615-1.314.808-.933.158.305.158.552.018.895zm27.78 2.001c.316.4.509.8.456.896-.246.457-1.423-.915-2.214-2.573-.298-.61-.316-.82-.14-1.238.193-.477.21-.458.773.838.316.743.826 1.658 1.124 2.077z" fill="url(#a)"/><path d="M10.482 10.09c-.457.4-1.142 1.543-.914 1.543.07 0 .615-.076 1.177-.19 1.3-.23 1.687-.744 1.055-1.41-.37-.4-.809-.382-1.318.056z" fill="url(#b)"/><path d="M20.303 9.937c-.457.286-.404 1.105.088 1.296.633.247 2.056.438 2.056.266 0-.228-.545-1.048-.966-1.429-.405-.38-.738-.419-1.178-.133z" fill="url(#c)"/><path d="M10.025 15.063c-1.582 1.143-1.511 4.21.14 5.183 1.564.933 3.321-.439 3.321-2.61 0-1.582-.879-2.745-2.144-2.897-.562-.057-.896.019-1.317.324zm2.266 2.039c.352.343.422 1.2.106 1.543-.475.515-1.353.038-1.37-.724 0-.381.491-1.143.737-1.143.106 0 .352.133.527.324z" fill="url(#d)"/><path d="M19.706 15.044c-1.581 1.048-1.511 4.249.105 5.202.773.438 1.353.438 2.074-.038.808-.534 1.265-1.449 1.265-2.554 0-2.248-1.863-3.658-3.444-2.61zm1.125 2.363c.21.457.193.59-.036 1.01-.527.857-1.335.476-1.335-.63 0-1.066.949-1.333 1.37-.38z" fill="url(#e)"/><path d="M14.857 18.626c-.492.133-.37.762.263 1.276.685.572.843.591 1.529.21 1.317-.743.966-1.639-.598-1.6-.492.019-1.036.057-1.194.114zm1.493.19a1.227 1.227 0 01-.527 0c-.176-.057-.07-.095.21-.095.3 0 .422.038.317.095z" fill="url(#f)"/><path d="M12.924 21.122c-.878.877-.668 2.401.422 3.01.298.172.492.439.492.668 0 .666.51 1.6 1.036 1.943.281.172.844.324 1.248.324 1.001 0 1.933-.953 1.933-1.962 0-.515.087-.706.35-.8.177-.058.546-.382.792-.687.614-.82.597-1.753-.07-2.477-.598-.629-1.02-.686-2.215-.248-.773.305-.913.305-1.757 0-1.247-.419-1.58-.38-2.231.23zm1.845.133c.826.363 1.669.363 2.495-.019.808-.362 1.388-.228 1.774.4.352.591.211 1.296-.386 1.944l-.457.496-.597-.744c-.317-.4-.668-.857-.773-.99-.106-.115-.492-.23-.861-.23-.615 0-.756.096-1.353.935-.703 1.029-.984 1.048-1.546.171-.405-.61-.352-1.238.158-1.772.492-.553.702-.572 1.546-.19zm1.862 1.506c.457.59-.351 1.276-1.036.876-.387-.228-.475-.857-.123-1.01.421-.19.966-.133 1.16.134zm-1.915 1.448c-.263.534-.053 1.448.404 1.81.545.4 1.459.362 1.88-.095.37-.4.492-1.791.176-2A.494.494 0 0117 23.58c.018-.133.176-.019.352.229.878 1.143-.018 2.877-1.494 2.877-.703 0-1.493-.953-1.493-1.791 0-.381.105-.858.21-1.067.282-.496.405-.153.141.38zm2.109.038c0 .095-.352.152-.791.152-.44 0-.79-.057-.79-.152 0-.076.35-.133.79-.133.44 0 .79.057.79.133zm.175.762c0 .362-.562.915-.93.915-.423 0-1.002-.515-1.002-.896 0-.171.28-.247.966-.247.615 0 .966.076.966.228z" fill="url(#g)"/><defs><linearGradient id="a" x1="0" y1="17.108" x2="32.477" y2="17.108" gradientUnits="userSpaceOnUse"><stop stop-color="#306EF9"/><stop offset="1" stop-color="#FF4E78"/></linearGradient><linearGradient id="b" x1="9.523" y1="10.755" x2="12.136" y2="10.755" gradientUnits="userSpaceOnUse"><stop stop-color="#306EF9"/><stop offset="1" stop-color="#FF4E78"/></linearGradient><linearGradient id="c" x1="19.989" y1="10.72" x2="22.484" y2="10.72" gradientUnits="userSpaceOnUse"><stop stop-color="#306EF9"/><stop offset="1" stop-color="#FF4E78"/></linearGradient><linearGradient id="d" x1="8.881" y1="17.834" x2="13.555" y2="17.834" gradientUnits="userSpaceOnUse"><stop stop-color="#306EF9"/><stop offset="1" stop-color="#FF4E78"/></linearGradient><linearGradient id="e" x1="18.559" y1="17.834" x2="23.218" y2="17.834" gradientUnits="userSpaceOnUse"><stop stop-color="#306EF9"/><stop offset="1" stop-color="#FF4E78"/></linearGradient><linearGradient id="f" x1="14.554" y1="19.504" x2="17.503" y2="19.504" gradientUnits="userSpaceOnUse"><stop stop-color="#306EF9"/><stop offset="1" stop-color="#FF4E78"/></linearGradient><linearGradient id="g" x1="12.378" y1="24.061" x2="19.751" y2="24.061" gradientUnits="userSpaceOnUse"><stop stop-color="#306EF9"/><stop offset="1" stop-color="#FF4E78"/></linearGradient></defs></svg>